HIERARCHY
ROOT joint_Root
{
	OFFSET 0.0 0.0 0.0
	CHANNELS 6 Xposition Yposition Zposition Zrotation Xrotation Yrotation 
	JOINT Hips
	{
		OFFSET -17.1583 93.1646 452.98
		CHANNELS 6 Xposition Yposition Zposition Zrotation Xrotation Yrotation 
		JOINT Spine
		{
			OFFSET 15.7357 0.0 0.0
			CHANNELS 6 Xposition Yposition Zposition Zrotation Xrotation Yrotation 
			JOINT Chest
			{
				OFFSET 8.98455 -0.406207 0.0
				CHANNELS 6 Xposition Yposition Zposition Zrotation Xrotation Yrotation 
				JOINT Neck
				{
					OFFSET 16.3773 0.0 0.0
					CHANNELS 6 Xposition Yposition Zposition Zrotation Xrotation Yrotation 
					JOINT Head
					{
						OFFSET 6.45672 0.0 0.0
						CHANNELS 6 Xposition Yposition Zposition Zrotation Xrotation Yrotation 
						End Site
						{
							OFFSET 0.0 0.0 0.0
						}
					}
				}
				JOINT Shoulder_L
				{
					OFFSET 12.9942 -0.242716 4.98039
					CHANNELS 6 Xposition Yposition Zposition Zrotation Xrotation Yrotation 
					JOINT UpperArm_L
					{
						OFFSET 5.34809 0.0 0.0
						CHANNELS 6 Xposition Yposition Zposition Zrotation Xrotation Yrotation 
						JOINT LowerArm_L
						{
							OFFSET 24.3286 1.87007e-05 0.0
							CHANNELS 6 Xposition Yposition Zposition Zrotation Xrotation Yrotation 
							JOINT Hand_L
							{
								OFFSET 22.2916 0.0 0.0
								CHANNELS 6 Xposition Yposition Zposition Zrotation Xrotation Yrotation 
								End Site
								{
									OFFSET 0.0 0.0 0.0
								}
							}
						}
					}
				}
				JOINT Shoulder_R
				{
					OFFSET 12.9945 -0.242716 -4.98039
					CHANNELS 6 Xposition Yposition Zposition Zrotation Xrotation Yrotation 
					JOINT UpperArm_R
					{
						OFFSET -5.34813 0.0 0.0
						CHANNELS 6 Xposition Yposition Zposition Zrotation Xrotation Yrotation 
						JOINT LowerArm_R
						{
							OFFSET -24.3289 0.000322201 0.0
							CHANNELS 6 Xposition Yposition Zposition Zrotation Xrotation Yrotation 
							JOINT Hand_R
							{
								OFFSET -22.2915 -0.000108084 0.0
								CHANNELS 6 Xposition Yposition Zposition Zrotation Xrotation Yrotation 
								End Site
								{
									OFFSET 0.0 0.0 0.0
								}
							}
						}
					}
				}
			}
		}
		JOINT UpperLeg_L
		{
			OFFSET -2.19248 -6.46944 0.0
			CHANNELS 6 Xposition Yposition Zposition Zrotation Xrotation Yrotation 
			JOINT LowerLeg_L
			{
				OFFSET 39.0811 0.0 -1.23785e-05
				CHANNELS 6 Xposition Yposition Zposition Zrotation Xrotation Yrotation 
				JOINT Foot_L
				{
					OFFSET 40.9854 0.0 -1.26872e-05
					CHANNELS 6 Xposition Yposition Zposition Zrotation Xrotation Yrotation 
					JOINT Toes_L
					{
						OFFSET 11.7543 0.0 0.0
						CHANNELS 6 Xposition Yposition Zposition Zrotation Xrotation Yrotation 
						End Site
						{
							OFFSET 0.0 0.0 0.0
						}
					}
				}
			}
		}
		JOINT UpperLeg_R
		{
			OFFSET -2.19251 6.46944 0.0
			CHANNELS 6 Xposition Yposition Zposition Zrotation Xrotation Yrotation 
			JOINT LowerLeg_R
			{
				OFFSET -39.0811 -0.00228153 -0.0401928
				CHANNELS 6 Xposition Yposition Zposition Zrotation Xrotation Yrotation 
				JOINT Foot_R
				{
					OFFSET -40.9854 0.0 0.0
					CHANNELS 6 Xposition Yposition Zposition Zrotation Xrotation Yrotation 
					JOINT Toes_R
					{
						OFFSET -11.7543 0.0 0.0
						CHANNELS 6 Xposition Yposition Zposition Zrotation Xrotation Yrotation 
						End Site
						{
							OFFSET 0.0 0.0 0.0
						}
					}
				}
			}
		}
	}
}
MOTION
Frames:	4
Frame Time:	0.0333333
0.000000 0.000000 0.000000 0.000000 0.000000 -0.000000 -3.184540 92.950700 2.851150 88.060800 0.779653 -0.441270 15.735700 0.000005 -0.000001 56.237000 87.991200 -47.202700 8.984550 -0.406207 -0.000000 -4.114730 -3.164300 17.969000 16.377300 -0.000001 -0.000001 6.366550 6.653410 7.522750 6.456720 -0.000001 -0.000000 -3.130150 7.623390 18.127800 12.994200 -0.242716 4.980390 -87.306500 -5.085240 -62.042400 5.348090 -0.000007 -0.000001 -40.576400 -58.160300 -87.087700 24.328600 0.000019 0.000005 2.992110 31.046400 -5.787090 22.291600 -0.000001 0.000005 47.885300 4.519050 16.284000 12.994500 -0.242716 -4.980390 89.089500 3.140170 -73.822100 -5.348130 -0.000001 -0.000004 -59.914900 5.269310 -4.704450 -24.328900 0.000322 -0.000009 1.524010 6.116920 -14.028200 -22.291500 -0.000108 -0.000004 5.931520 5.226350 2.049730 -2.192480 -6.469440 -0.000000 -170.653000 -11.151300 1.755750 39.081100 -0.000007 -0.000012 0.011459 -0.056284 11.508100 40.985400 -0.000006 -0.000013 -4.305600 18.335400 -67.991200 11.754300 -0.000000 0.000003 -0.001287 0.187037 -8.989330 -2.192510 6.469440 -0.000001 179.346000 6.514540 -178.473000 -39.081100 -0.002282 -0.040193 0.024715 -0.103087 11.716100 -40.985400 0.000008 0.000006 -3.815510 4.870350 -68.946100 -11.754300 -0.000006 -0.000006 -0.013291 0.294439 -4.603690
0.000000 0.000000 0.000000 0.000000 0.000000 -0.000000 -3.164830 92.948400 2.863810 88.082500 0.750272 -0.472380 15.735700 0.000005 -0.000001 56.458400 87.997900 -47.443200 8.984550 -0.406207 -0.000000 -4.119900 -3.142360 17.931400 16.377300 -0.000001 -0.000001 6.398480 6.649630 7.442740 6.456720 -0.000001 -0.000000 -3.108730 7.578470 18.168800 12.994200 -0.242716 4.980390 -87.311600 -5.070620 -62.019500 5.348090 -0.000007 -0.000001 -40.684000 -58.132000 -87.244800 24.328600 0.000019 0.000005 2.933850 31.071800 -5.670790 22.291600 -0.000001 0.000005 47.745500 4.520910 16.252900 12.994500 -0.242716 -4.980390 89.099400 3.102480 -73.804100 -5.348130 -0.000001 -0.000004 -59.987200 5.264820 -4.648860 -24.328900 0.000322 -0.000009 1.542440 6.164180 -14.086900 -22.291500 -0.000108 -0.000004 5.902710 5.224920 2.086550 -2.192480 -6.469440 -0.000000 -170.702000 -11.184900 1.748800 39.081100 -0.000007 -0.000012 0.012030 -0.059177 11.491100 40.985400 -0.000006 -0.000013 -4.212950 18.303700 -68.028300 11.754300 -0.000000 0.000003 -0.001259 0.186655 -9.004870 -2.192510 6.469440 -0.000001 179.315000 6.514660 -178.520000 -39.081100 -0.002282 -0.040193 0.025323 -0.105607 11.760700 -40.985400 0.000008 0.000006 -3.834860 4.905430 -68.959500 -11.754300 -0.000006 -0.000006 -0.013215 0.293933 -4.624440
0.000000 0.000000 0.000000 0.000000 0.000000 -0.000000 -3.155350 92.950000 2.871200 88.064500 0.739585 -0.483264 15.735700 0.000005 -0.000001 56.760900 87.992700 -47.755900 8.984550 -0.406207 -0.000000 -4.101090 -3.127910 17.912000 16.377300 -0.000001 -0.000001 6.420910 6.624000 7.409710 6.456720 -0.000001 -0.000000 -3.102250 7.532160 18.153800 12.994200 -0.242716 4.980390 -87.322000 -5.048580 -62.008300 5.348090 -0.000007 -0.000001 -40.910400 -58.120800 -87.520300 24.328600 0.000019 0.000005 2.857570 30.997600 -5.535860 22.291600 -0.000001 0.000005 47.613400 4.520250 16.263900 12.994500 -0.242716 -4.980390 89.101000 3.094460 -73.791900 -5.348130 -0.000001 -0.000004 -60.048100 5.305270 -4.606660 -24.328900 0.000322 -0.000009 1.523780 6.076240 -14.115900 -22.291500 -0.000108 -0.000004 5.878970 5.227470 2.021090 -2.192480 -6.469440 -0.000000 -170.683000 -11.217900 1.737910 39.081100 -0.000007 -0.000012 0.011384 -0.055911 11.509500 40.985400 -0.000006 -0.000013 -4.266630 18.339400 -68.015200 11.754300 -0.000000 0.000003 -0.001190 0.185696 -9.043850 -2.192510 6.469440 -0.000001 179.328000 6.452530 -178.499000 -39.081100 -0.002282 -0.040193 0.024653 -0.102874 11.706800 -40.985400 0.000008 0.000006 -3.879830 4.869540 -68.942800 -11.754300 -0.000006 -0.000006 -0.013275 0.294334 -4.607990
0.000000 0.000000 0.000000 0.000000 0.000000 -0.000000 -3.156140 92.952600 2.874650 88.069700 0.750244 -0.517842 15.735700 0.000005 -0.000001 56.982200 87.992900 -47.999300 8.984550 -0.406207 -0.000000 -4.095050 -3.112010 17.868300 16.377300 -0.000001 -0.000001 6.449090 6.611170 7.407880 6.456720 -0.000001 -0.000000 -3.153870 7.504080 18.128900 12.994200 -0.242716 4.980390 -87.321800 -5.035490 -61.944700 5.348090 -0.000007 -0.000001 -41.331900 -58.053700 -87.994100 24.328600 0.000019 0.000005 2.812190 31.042200 -5.441320 22.291600 -0.000001 0.000005 47.610100 4.522250 16.230700 12.994500 -0.242716 -4.980390 89.105800 3.076830 -73.785600 -5.348130 -0.000001 -0.000004 -60.133700 5.303980 -4.583340 -24.328900 0.000322 -0.000009 1.531570 6.099910 -14.132600 -22.291500 -0.000108 -0.000004 5.804190 5.228410 1.996640 -2.192480 -6.469440 -0.000000 -170.701000 -11.160200 1.728540 39.081100 -0.000007 -0.000012 0.011397 -0.056265 11.451500 40.985400 -0.000006 -0.000013 -4.262570 18.279300 -67.995200 11.754300 -0.000000 0.000003 -0.001227 0.186213 -9.022840 -2.192510 6.469440 -0.000001 179.331000 6.437340 -178.507000 -39.081100 -0.002282 -0.040193 0.024411 -0.102140 11.658400 -40.985400 0.000008 0.000006 -3.859140 4.840520 -68.924800 -11.754300 -0.000006 -0.000006 -0.013087 0.293082 -4.659340
